<svg width="20" height="20" viewBox="0 0 20 20" fill="none" xmlns="http://www.w3.org/2000/svg">
<path d="M16.2919 12.5222C15.2905 12.5222 14.3216 12.3593 13.4178 12.0662C13.1329 11.9685 12.8153 12.0418 12.5955 12.2616L11.3172 13.8656C9.01307 12.7664 6.85547 10.6902 5.70746 8.30466L7.29513 6.95311C7.51496 6.72514 7.5801 6.4076 7.49054 6.12264C7.18929 5.21889 7.03459 4.25 7.03459 3.24855C7.03459 2.80889 6.66821 2.4425 6.22854 2.4425H3.41145C2.97179 2.4425 2.44257 2.63791 2.44257 3.24855C2.44257 10.8124 8.73625 17.0979 16.2919 17.0979C16.87 17.0979 17.098 16.585 17.098 16.1372V13.3282C17.098 12.8885 16.7316 12.5222 16.2919 12.5222Z" fill="white"/>
</svg>
