<svg width="22" height="22" viewBox="0 0 22 22" fill="none" xmlns="http://www.w3.org/2000/svg">
<path d="M20.1666 8.23159V16.4999C20.1666 17.5083 19.3416 18.3333 18.3333 18.3333H3.66665C2.65831 18.3333 1.83331 17.5083 1.83331 16.4999V5.49992C1.83331 4.49159 2.65831 3.66659 3.66665 3.66659H12.925C12.87 3.95992 12.8333 4.27159 12.8333 4.58325C12.8333 5.93992 13.4291 7.14075 14.3641 7.98409L11 10.0833L3.66665 5.49992V7.33325L11 11.9166L15.8583 8.87325C16.3533 9.05659 16.8666 9.16659 17.4166 9.16659C18.4525 9.16659 19.3966 8.80908 20.1666 8.23159ZM14.6666 4.58325C14.6666 6.10492 15.895 7.33325 17.4166 7.33325C18.9383 7.33325 20.1666 6.10492 20.1666 4.58325C20.1666 3.06159 18.9383 1.83325 17.4166 1.83325C15.895 1.83325 14.6666 3.06159 14.6666 4.58325Z" fill="#5ABFFF"/>
</svg>
