<svg width="161" height="121" viewBox="0 0 161 121" fill="none" xmlns="http://www.w3.org/2000/svg">
<g clip-path="url(#clip0_6_394)">
<path d="M39.52 77.05V77.16L32.2 81.54H21.93L20.43 84.21H27.49V84.32C23.64 86.57 21.61 87.73 21.39 87.8H18.4C17.73 88.82 17.25 89.68 16.96 90.37H32.15L32.2 90.42H32.25C30.79 93.02 29.95 94.45 29.74 94.7H9.58L9.53 94.65H9.48L19.48 77.06H39.53L39.52 77.05Z" fill="white"/>
<path d="M39.7 76.9499H44.57L44.62 76.9999H44.67C42.43 80.9699 41.31 83.0199 41.3 83.1499L41.25 83.4199C41.25 83.8799 41.7 84.1099 42.59 84.1099H46.55C47.98 84.1099 49.04 83.2499 49.7 81.5399L52.27 76.9399H57.24V77.0499C54.71 81.7699 53.32 84.2999 53.07 84.6399C52.59 85.4199 51.63 85.8199 50.18 85.8199V85.8699C51.11 86.0999 51.57 86.4899 51.57 87.0499C51.57 87.3199 50.95 88.5299 49.7 90.6899C48.28 93.2699 47.52 94.5899 47.4 94.6499H42.59L42.48 94.5399C44.51 91.0999 45.53 89.2499 45.53 88.9799L45.58 88.7099C45.58 87.9999 45.08 87.6399 44.08 87.6399H40.76C39.08 87.6399 37.8 88.6699 36.91 90.7399L34.61 94.6399H34.56L30.07 94.6899H29.64L29.59 94.6399H29.54C32.22 89.8699 33.74 87.2699 34.08 86.8299C34.87 86.1499 35.75 85.8099 36.7 85.8099V85.7599C35.81 85.5699 35.36 85.2499 35.36 84.7999V84.6899C35.36 84.4099 36 83.1999 37.28 81.0499C38.74 78.4399 39.54 77.0699 39.69 76.9299L39.7 76.9499Z" fill="white"/>
<path d="M59.17 76.95L70.61 77H71.63C72.94 77 73.94 77.52 74.62 78.55C74.72 78.76 74.79 79.07 74.83 79.46C74.83 80.22 74.14 81.75 72.74 84.06C71.96 85.66 71.05 86.94 70.01 87.91C68.4 89.48 66.2 90.26 63.43 90.26L56.48 90.21C54.96 92.98 54.09 94.48 53.86 94.7H48.99L48.88 94.59L59.09 76.95H59.14H59.17ZM61.47 81.55L59.01 85.88H63.13C65.34 85.88 66.68 85.51 67.14 84.76C67.96 83.63 68.37 82.86 68.37 82.46V82.41C68.25 81.84 67.77 81.55 66.93 81.55H61.48H61.47Z" fill="white"/>
<path d="M78.33 76.8899H90.2C92.43 76.8899 93.73 77.5799 94.1 78.9699L94.15 79.3399C94.15 80.1199 93.38 81.7799 91.85 84.3099C90.97 86.0699 90.01 87.1999 88.96 87.6799L87.57 87.9999V88.0499C88.28 88.0499 88.71 88.3899 88.85 89.0699V89.2299C88.85 89.5799 88 91.1999 86.28 94.0999L85.96 94.6399L83.02 94.6899H80.99L80.88 94.5799L83.34 90.1999H75.85L73.23 94.6399H68.26C68.47 94.1099 70.02 91.3499 72.91 86.3499C76.36 80.1899 78.16 77.0399 78.31 76.8899H78.33ZM78.38 85.8199H82.6C85.01 85.8199 86.42 85.2699 86.82 84.1599C87.36 83.2299 87.62 82.6299 87.62 82.3399V81.9699C87.41 81.6099 86.98 81.4399 86.34 81.4399H80.89C79.21 84.2299 78.38 85.6899 78.38 85.8199Z" fill="white"/>
<path d="M97.7 77H117.8V77.11L110.47 81.49H100.26C99.92 81.97 99.4 82.86 98.71 84.16H105.77V84.27L99.73 87.75H96.58L95.19 90.26H110.43L110.48 90.31H110.53C108.92 93.19 108.06 94.65 107.96 94.69H87.75L87.7 94.64H87.65C94.21 83.02 97.56 77.14 97.7 77Z" fill="white"/>
<path d="M123.32 77H137.43V77.05C132.87 80.01 130.5 81.49 130.32 81.49H126.31L122.89 81.44C121.36 81.44 119.95 82.35 118.67 84.17H126.48C128.19 84.17 129.26 84.62 129.69 85.51L129.8 85.99V86.36C129.8 87.01 129.07 88.45 127.61 90.69C126.28 92.47 124.75 93.63 123.01 94.17C121.92 94.53 121.01 94.7 120.28 94.7H107.72V94.59L114.24 90.74C114.78 90.38 115.12 90.21 115.26 90.21L120.61 90.16C121.25 90.16 122 89.91 122.86 89.41C123.74 88.67 124.22 88.1 124.3 87.7H117.62C115.08 87.7 113.69 87.27 113.45 86.42L113.29 85.83V85.56C113.29 84.72 114.23 82.99 116.12 80.37C117.8 78.12 120.21 77 123.34 77H123.32Z" fill="white"/>
<path d="M142.69 77H156.8V77.05C152.24 80.01 149.87 81.49 149.69 81.49H145.68L142.26 81.44C140.73 81.44 139.32 82.35 138.04 84.17H145.85C147.56 84.17 148.63 84.62 149.06 85.51L149.17 85.99V86.36C149.17 87.01 148.44 88.45 146.98 90.69C145.65 92.47 144.12 93.63 142.38 94.17C141.29 94.53 140.38 94.7 139.65 94.7H127.09V94.59L133.61 90.74C134.15 90.38 134.49 90.21 134.63 90.21L139.98 90.16C140.62 90.16 141.37 89.91 142.22 89.41C143.1 88.67 143.58 88.1 143.66 87.7H136.98C134.44 87.7 133.05 87.27 132.81 86.42L132.65 85.83V85.56C132.65 84.72 133.59 82.99 135.48 80.37C137.16 78.12 139.57 77 142.7 77H142.69Z" fill="white"/>
<path d="M5.83 102.38H10.86V102.43C8.15 107.18 6.71 109.78 6.53 110.24V110.56C6.53 110.96 6.89 111.19 7.6 111.26H13.54C15.05 108.5 18.17 102.6 18.33 102.44L23.3 102.49V102.54C18.58 110.97 13.82 119.77 13.59 120.08H11.02L8.51 120.13L8.46 120.08L10.92 115.75V115.7H3.1C1.53 115.7 0.53 115.25 0.11 114.36L0 113.66V113.45C0 112.62 0.7 111.09 2.09 108.85C4.39 104.77 5.64 102.61 5.83 102.38Z" fill="white"/>
<path d="M20.51 120.13C18.68 120.13 17.49 119.67 16.93 118.74C16.79 118.48 16.72 118.2 16.72 117.88V117.77C16.72 116.93 17.42 115.42 18.81 113.23C22.23 107.06 24.26 103.48 24.91 102.48H29.88V102.53L23.46 113.87C23.28 114.21 23.19 114.53 23.19 114.83V114.99C23.19 115.45 23.53 115.69 24.21 115.69H30.04C34.97 106.98 37.5 102.58 37.63 102.48H42.5C42.5 102.59 40.84 105.53 37.53 111.3L32.45 120.12H20.53L20.51 120.13Z" fill="white"/>
<path d="M49.65 102.43H64.35V102.54L57.02 106.92H49.05C47.32 106.92 45.72 108.38 44.24 111.3C43.13 113 42.58 114.13 42.58 114.67C42.67 115.31 43.03 115.63 43.65 115.63L43.81 115.68L44.45 115.63H54.4L54.45 115.68H54.5C52.92 118.56 52.08 120.02 51.99 120.06H42.58L41.88 120.11L41.29 120.06H39.04C37.52 120.06 36.57 119.56 36.21 118.56C36.14 118.45 36.09 118.17 36.05 117.7C36.05 116.76 36.78 115.15 38.24 112.89L42.25 106.05C44.3 103.63 46.76 102.41 49.63 102.41L49.65 102.43Z" fill="white"/>
<path d="M78.21 102.38L82.86 102.43V102.54L75.59 106.98H70.88C65.93 115.75 63.42 120.13 63.34 120.13H58.37V120.08L65.91 106.93H58.74V106.82L66.12 102.38H78.2H78.21Z" fill="white"/>
<path d="M96 102.48H100.76L100.81 102.53H100.86C98.23 107.33 96.77 109.95 96.48 110.39C96.01 111.03 95.15 111.35 93.91 111.35H93.75V111.4C94.64 111.61 95.09 111.92 95.09 112.31V112.63C95.09 112.85 94.61 113.78 93.65 115.41C92.08 118.23 91.19 119.76 90.98 120.01H86.01L88.58 115.47C88.83 115.03 88.95 114.64 88.95 114.29V114.08C88.95 113.56 88.59 113.26 87.88 113.17H82.21C79.66 117.78 78.32 120.09 78.2 120.12H73.33C73.4 119.87 75.49 116.18 79.59 109.05C81.94 104.86 83.21 102.69 83.39 102.53H88.26V102.64L84.3 109.64H89.7C91.41 109.64 92.46 109.09 92.86 107.98C94.8 104.48 95.85 102.64 96.01 102.47L96 102.48Z" fill="white"/>
<path d="M114.84 102.43C116.76 102.43 117.98 103 118.53 104.14L118.64 104.78V104.94C118.64 105.7 117.96 107.18 116.61 109.38C112.63 116.36 110.56 119.92 110.41 120.07H105.49L107.9 115.69H100.31C100.17 115.83 99.33 117.29 97.8 120.07L97.75 120.12H92.72V120.07C97.6 111.47 100.28 106.84 100.74 106.17C102.1 104.67 103.19 103.76 104 103.44C105.02 102.88 106.09 102.56 107.21 102.48L114.86 102.43H114.84ZM107.73 102.48H115.16C116.88 102.48 118 103.12 118.53 104.4L118.58 104.83C118.58 105.66 117.73 107.44 116.01 110.18C114.32 113.23 112.43 116.51 110.34 120.02L110.12 120.07H105.58L105.47 119.96L107.82 115.84V115.68H100.17C100.04 115.81 99.2 117.28 97.66 120.06L97.39 120.11H92.79L92.74 120.06H92.69C97.56 111.49 100.19 106.91 100.6 106.32C102.72 103.75 105.09 102.47 107.71 102.47L107.73 102.48ZM102.65 111.41H109.39C110.14 111.41 110.51 111.29 110.51 111.04C111.65 109.36 112.22 108.35 112.22 107.99V107.56C112.02 107.13 111.51 106.92 110.67 106.92H107.62C105.58 106.92 103.92 108.42 102.65 111.41ZM102.76 111.36H110.35C111.63 109.36 112.27 108.24 112.27 107.99V107.78C112.27 107.21 111.66 106.92 110.45 106.92H107.94C105.96 106.92 104.45 108.01 103.4 110.18C102.97 110.87 102.76 111.26 102.76 111.36Z" fill="white"/>
<path d="M130.49 102.29H138.29C139.98 102.29 141.04 102.98 141.49 104.35L141.54 104.84C141.54 105.81 140.62 107.61 138.78 110.26C136.88 112.21 134.59 113.19 131.9 113.19H127.13C126.05 113.19 124.87 113.77 123.61 114.92L122.85 115.73H135.37L135.48 115.84C134.02 118.79 133.24 120.27 133.15 120.28H115.16C115.23 120.03 116.55 117.64 119.12 113.13C120.57 111.66 121.91 110.7 123.13 110.26C124.3 109.83 125.28 109.61 126.06 109.61L130.88 109.56L130.93 109.61H130.98C132.36 109.45 133.7 108.91 134.99 107.98C135.42 107.48 135.64 107.1 135.64 106.84H122.8V106.79C127.78 103.79 130.34 102.29 130.5 102.29H130.49Z" stroke="white" stroke-miterlimit="10"/>
<path d="M144.89 102.29H149.98V102.34C147.23 107.15 145.77 109.79 145.59 110.25V110.58C145.59 110.99 145.95 111.22 146.67 111.28H152.69C154.23 108.48 155.07 107 155.24 106.84L160.28 106.89V106.94C155.49 115.48 152.98 119.91 152.75 120.22H150.15L147.6 120.27L147.55 120.22L150.04 115.83V115.78H142.13C140.54 115.78 139.53 115.33 139.1 114.43L138.99 113.73V113.51C138.99 112.67 139.69 111.12 141.1 108.85C143.43 104.71 144.69 102.53 144.89 102.29V102.29Z" stroke="white" stroke-miterlimit="10"/>
<path d="M140.45 43.3399C136.03 41.6499 121.93 38.4499 121.93 38.4499C121.75 37.2999 121.23 35.0399 119.78 34.1999C117.81 33.0299 115.91 34.4899 115.91 34.4899L112.86 33.0799C112.86 33.0799 112.63 31.1299 111.28 30.0299C109.94 28.9199 107.92 30.2799 107.92 30.2799L104.61 28.1299C104.61 28.1299 104.22 25.7599 102.37 24.6899C100.51 23.6299 99.01 24.9399 99.01 24.9399C97.92 24.2599 95.1 21.7399 95.1 21.7399C95.1 21.7399 94.5 19.1699 92.96 18.2999C91.43 17.4299 89.49 18.4499 89.49 18.4499C89.49 18.4499 82.2 9.05994 75.14 6.18994C68.09 3.31994 63.86 16.7499 62.9 19.6399C62.31 21.4399 62.95 22.6099 63.54 23.3099C61.37 25.0599 56.49 28.1499 49.26 27.7999C39.26 27.3199 35.65 18.0599 30.07 24.9799C26.51 29.3999 25.37 36.3099 25.37 41.5399L36.48 41.7799C37.5 41.7999 38.31 42.6499 38.29 43.6699C38.27 44.6799 37.45 45.4799 36.44 45.4799H36.4L25.58 45.2499C25.74 46.4799 25.97 47.4599 26.24 48.0699C26.24 48.0699 26.13 48.5899 26.01 49.3899L48.49 49.8699C49.51 49.8899 50.32 50.7399 50.3 51.7599C50.28 52.7699 49.46 53.5699 48.45 53.5699H48.41L25.71 53.0799C25.68 55.9399 26.21 59.1299 28.57 59.9999C33.11 61.6899 72.89 62.6599 72.91 62.6599C83.35 63.2799 105.2 64.2399 119.28 63.4799C137.19 62.5099 144.07 60.2399 144.07 60.2399C146.06 59.3999 146.06 56.2699 146.16 53.6099C146.28 50.9499 144.88 45.0499 140.46 43.3599L140.45 43.3399Z" fill="white"/>
<path d="M31.33 37.2699C36.411 37.2699 40.53 33.1509 40.53 28.0699C40.53 22.9889 36.411 18.8699 31.33 18.8699C26.249 18.8699 22.13 22.9889 22.13 28.0699C22.13 33.1509 26.249 37.2699 31.33 37.2699Z" fill="#5ABFFF"/>
<path d="M31.33 38.6899C25.48 38.6899 20.71 33.93 20.71 28.07C20.71 22.2099 25.47 17.45 31.33 17.45C37.19 17.45 41.95 22.2099 41.95 28.07C41.95 33.93 37.19 38.6899 31.33 38.6899ZM31.33 20.29C27.04 20.29 23.55 23.78 23.55 28.07C23.55 32.36 27.04 35.8499 31.33 35.8499C35.62 35.8499 39.11 32.36 39.11 28.07C39.11 23.78 35.62 20.29 31.33 20.29Z" fill="white"/>
<path d="M68.53 38.2399C72.28 38.2399 75.32 35.1999 75.32 31.4499C75.32 27.6999 72.28 24.6599 68.53 24.6599C64.78 24.6599 61.74 27.6999 61.74 31.4499C61.74 35.1999 64.78 38.2399 68.53 38.2399Z" fill="#5ABFFF"/>
<path d="M68.53 39.65C64 39.65 60.32 35.97 60.32 31.44C60.32 26.91 64 23.23 68.53 23.23C73.06 23.23 76.74 26.91 76.74 31.44C76.74 35.97 73.06 39.65 68.53 39.65ZM68.53 26.07C65.57 26.07 63.16 28.48 63.16 31.44C63.16 34.4 65.57 36.81 68.53 36.81C71.49 36.81 73.9 34.4 73.9 31.44C73.9 28.48 71.49 26.07 68.53 26.07Z" fill="white"/>
<path d="M69.64 24.02C71.7884 24.02 73.53 22.2784 73.53 20.13C73.53 17.9816 71.7884 16.24 69.64 16.24C67.4916 16.24 65.75 17.9816 65.75 20.13C65.75 22.2784 67.4916 24.02 69.64 24.02Z" fill="#5ABFFF"/>
<path d="M69.64 25.4401C66.71 25.4401 64.33 23.0601 64.33 20.1301C64.33 17.2001 66.71 14.8201 69.64 14.8201C72.57 14.8201 74.95 17.2001 74.95 20.1301C74.95 23.0601 72.57 25.4401 69.64 25.4401ZM69.64 17.6601C68.27 17.6601 67.16 18.7701 67.16 20.1301C67.16 21.4901 68.27 22.6101 69.64 22.6101C71.01 22.6101 72.11 21.5001 72.11 20.1301C72.11 18.7601 71 17.6601 69.64 17.6601Z" fill="white"/>
<path d="M43.87 9.19992C46.0184 9.19992 47.76 7.45831 47.76 5.30992C47.76 3.16153 46.0184 1.41992 43.87 1.41992C41.7216 1.41992 39.98 3.16153 39.98 5.30992C39.98 7.45831 41.7216 9.19992 43.87 9.19992Z" fill="#5ABFFF"/>
<path d="M43.87 10.62C40.94 10.62 38.56 8.24 38.56 5.31C38.56 2.38 40.94 0 43.87 0C46.8 0 49.18 2.38 49.18 5.31C49.18 8.24 46.8 10.62 43.87 10.62ZM43.87 2.84C42.51 2.84 41.39 3.95 41.39 5.31C41.39 6.67 42.5 7.78 43.87 7.78C45.24 7.78 46.34 6.67 46.34 5.31C46.34 3.95 45.23 2.84 43.87 2.84Z" fill="white"/>
<path d="M52.91 31.2C59.7197 31.2 65.24 25.6797 65.24 18.87C65.24 12.0604 59.7197 6.54004 52.91 6.54004C46.1003 6.54004 40.58 12.0604 40.58 18.87C40.58 25.6797 46.1003 31.2 52.91 31.2Z" fill="#5ABFFF"/>
<path d="M52.91 32.6201C45.33 32.6201 39.16 26.4501 39.16 18.8701C39.16 11.2901 45.33 5.12012 52.91 5.12012C60.49 5.12012 66.66 11.2901 66.66 18.8701C66.66 26.4501 60.49 32.6201 52.91 32.6201ZM52.91 7.96012C46.89 7.96012 42 12.8601 42 18.8701C42 24.8801 46.9 29.7801 52.91 29.7801C58.92 29.7801 63.82 24.8801 63.82 18.8701C63.82 12.8601 58.92 7.96012 52.91 7.96012Z" fill="white"/>
</g>
<defs>
<clipPath id="clip0_6_394">
<rect width="160.78" height="120.79" fill="white"/>
</clipPath>
</defs>
</svg>
