<svg width="19" height="19" viewBox="0 0 19 19" fill="none" xmlns="http://www.w3.org/2000/svg">
<path d="M12.0575 10.7353C12.4969 10.8735 12.9179 11.0645 13.3114 11.3041L13.2862 11.2895C13.7161 11.4805 14.0875 11.704 14.4264 11.9664L14.4142 11.9575C14.4304 12.0071 14.4402 12.0632 14.4402 12.1225L14.4394 12.1485V12.1477C14.4272 12.4963 14.35 12.8238 14.2191 13.122L14.2256 13.105C14.0379 13.4812 13.725 13.7714 13.3423 13.9258L13.3309 13.9298C12.9348 14.1369 12.4969 14.2511 12.0501 14.2638H12.0453C11.1926 14.1542 10.3685 13.8834 9.61704 13.4658L9.65198 13.4837C8.85378 13.1221 8.12794 12.6185 7.50982 11.9973L7.509 11.9965C6.83481 11.2945 6.22351 10.5348 5.68215 9.72595L5.64395 9.66581C5.10672 8.96356 4.79504 8.11493 4.75003 7.2319L4.74921 7.22133V7.12056C4.76114 6.74336 4.84971 6.37254 5.00954 6.03066C5.16937 5.68879 5.39711 5.38303 5.6789 5.13199L5.68133 5.12955C5.8554 4.95612 6.08984 4.85681 6.33552 4.85244H6.33634C6.41841 4.85487 6.49724 4.86138 6.57363 4.87275L6.56307 4.87113C6.63377 4.88169 6.71585 4.88819 6.80036 4.88982H6.8028C6.92112 4.87831 7.03981 4.90756 7.13924 4.97271L7.13762 4.9719C7.22457 5.06779 7.29121 5.184 7.33103 5.31159L7.33266 5.31809C7.39984 5.48604 7.53853 5.85553 7.74874 6.42655C7.85845 6.68173 7.96572 6.99623 8.05186 7.31967L8.06324 7.37086C8.00462 7.6537 7.85195 7.90835 7.63009 8.09332L7.62765 8.09494C7.3378 8.40158 7.19288 8.59662 7.19288 8.68006C7.19598 8.74847 7.21885 8.81452 7.2587 8.87022L7.25789 8.8694C7.57219 9.51916 8.00678 10.1035 8.53864 10.5914L8.5427 10.5955C9.0995 11.0971 9.72371 11.5183 10.3972 11.847L10.4451 11.8681C10.5275 11.9216 10.6226 11.9521 10.7206 11.9567H10.7223C10.8485 11.9567 11.0755 11.753 11.4033 11.3456C11.731 10.9382 11.9488 10.7345 12.0566 10.7345L12.0575 10.7353ZM9.50002 17.4121H9.51789C10.585 17.4136 11.6406 17.1924 12.6174 16.7628L12.5678 16.7823C14.4824 15.9745 15.9753 14.4816 16.7636 12.6182L16.7831 12.567C17.1813 11.6625 17.4129 10.6077 17.4129 9.49922C17.4129 8.39075 17.1813 7.33592 16.7636 6.38105L16.7831 6.43143C15.9753 4.51681 14.4824 3.02396 12.619 2.23568L12.5678 2.21617C11.6633 1.81797 10.6085 1.58636 9.50002 1.58636C8.39155 1.58636 7.33672 1.81797 6.38184 2.23568L6.43223 2.21617C4.51761 3.02396 3.02475 4.51681 2.23647 6.38023L2.21697 6.43143C1.79796 7.40315 1.58357 8.45076 1.58716 9.50897C1.58453 11.1821 2.11987 12.8117 3.11414 14.1574L3.0987 14.1362L2.63752 15.7803L2.1032 17.0724L3.51722 16.4896L5.15229 16.1021C6.42604 16.96 7.92774 17.4163 9.46345 17.4121H9.50164H9.50002ZM9.50002 5.5208e-05H9.52683C10.8498 5.5208e-05 12.1078 0.277984 13.2447 0.779394L13.1854 0.755827C15.4812 1.72858 17.2715 3.51886 18.2207 5.75286L18.2442 5.81462C18.7221 6.90115 19 8.16808 19 9.50003C19 10.832 18.7221 12.0989 18.2207 13.2456L18.2442 13.1854C17.2715 15.4812 15.4812 17.2715 13.2472 18.2207L13.1854 18.2442C12.107 18.7221 10.849 19 9.52602 19H9.49839H9.50002H9.45695C7.78368 19 6.21281 18.5604 4.85405 17.7908L4.90037 17.8151L0.526228 18.6173L1.36043 14.4012C0.465781 12.9295 -0.00499306 11.2393 3.58447e-05 9.51709C3.58447e-05 8.17946 0.277965 6.90684 0.779376 5.75367L0.755809 5.81462C1.72856 3.51886 3.51885 1.72858 5.75285 0.779394L5.81461 0.755827C6.96886 0.253034 8.21502 -0.00433396 9.47401 5.5208e-05H9.50083H9.4992H9.50002Z" fill="#35CA50"/>
</svg>
