<svg width="97" height="72" viewBox="0 0 97 72" fill="none" xmlns="http://www.w3.org/2000/svg">
<g clip-path="url(#clip0_6_359)">
<path d="M84.9991 26.1609C82.3241 25.1408 73.7909 23.2092 73.7909 23.2092C73.682 22.515 73.3673 21.1508 72.4898 20.6438C71.2975 19.9376 70.1477 20.8189 70.1477 20.8189L68.3018 19.9677C68.3018 19.9677 68.1627 18.7907 67.3456 18.1267C66.5347 17.4567 65.3122 18.2776 65.3122 18.2776L63.309 16.9798C63.309 16.9798 63.073 15.5492 61.9534 14.9034C60.8277 14.2635 59.92 15.0543 59.92 15.0543C59.2603 14.6438 57.5537 13.1227 57.5537 13.1227C57.5537 13.1227 57.1905 11.5714 56.2585 11.0462C55.3326 10.5211 54.1585 11.1368 54.1585 11.1368C54.1585 11.1368 49.7467 5.46875 45.474 3.73636C41.2075 2.00396 38.6475 10.1106 38.0665 11.8551C37.7094 12.9416 38.0968 13.6478 38.4538 14.0704C37.1406 15.1267 34.1872 16.9919 29.8117 16.7806C23.7598 16.4909 21.5751 10.9013 18.1981 15.0784C16.0436 17.7464 15.3537 21.9174 15.3537 25.0744L22.0774 25.2193C22.6947 25.2313 23.1849 25.7444 23.1728 26.3601C23.1607 26.9698 22.6644 27.4527 22.0532 27.4527H22.029L15.4808 27.3138C15.5776 28.0563 15.7168 28.6478 15.8802 29.016C15.8802 29.016 15.8136 29.3299 15.741 29.8128L29.3457 30.1026C29.963 30.1146 30.4532 30.6277 30.4411 31.2434C30.429 31.8531 29.9327 32.336 29.3215 32.336H29.2973L15.5595 32.0402C15.5413 33.7665 15.8621 35.6921 17.2903 36.2172C20.0379 37.2374 44.1124 37.8229 44.1245 37.8229C50.4427 38.1971 63.6661 38.7766 72.1872 38.3178C83.0261 37.7323 87.1899 36.3621 87.1899 36.3621C88.3942 35.8551 88.3942 33.9657 88.4547 32.3601C88.5273 30.7545 87.6801 27.1931 85.0051 26.173L84.9991 26.1609Z" fill="#CF3C9B"/>
<path d="M18.9606 22.497C22.0356 22.497 24.5284 20.0107 24.5284 16.9437C24.5284 13.8767 22.0356 11.3904 18.9606 11.3904C15.8857 11.3904 13.3929 13.8767 13.3929 16.9437C13.3929 20.0107 15.8857 22.497 18.9606 22.497Z" fill="#CF3C9B"/>
<path d="M18.9606 23.3541C15.4203 23.3541 12.5335 20.4809 12.5335 16.9437C12.5335 13.4064 15.4142 10.5332 18.9606 10.5332C22.5071 10.5332 25.3878 13.4064 25.3878 16.9437C25.3878 20.4809 22.5071 23.3541 18.9606 23.3541ZM18.9606 12.2475C16.3644 12.2475 14.2523 14.3541 14.2523 16.9437C14.2523 19.5332 16.3644 21.6398 18.9606 21.6398C21.5569 21.6398 23.669 19.5332 23.669 16.9437C23.669 14.3541 21.5569 12.2475 18.9606 12.2475Z" fill="white"/>
<path d="M41.4737 23.0827C43.7432 23.0827 45.583 21.2477 45.583 18.9841C45.583 16.7205 43.7432 14.8855 41.4737 14.8855C39.2043 14.8855 37.3645 16.7205 37.3645 18.9841C37.3645 21.2477 39.2043 23.0827 41.4737 23.0827Z" fill="#CF3C9B"/>
<path d="M41.4737 23.9337C38.7322 23.9337 36.5051 21.7124 36.5051 18.978C36.5051 16.2435 38.7322 14.0222 41.4737 14.0222C44.2153 14.0222 46.4424 16.2435 46.4424 18.978C46.4424 21.7124 44.2153 23.9337 41.4737 23.9337ZM41.4737 15.7365C39.6824 15.7365 38.2239 17.1912 38.2239 18.978C38.2239 20.7647 39.6824 22.2194 41.4737 22.2194C43.2651 22.2194 44.7236 20.7647 44.7236 18.978C44.7236 17.1912 43.2651 15.7365 41.4737 15.7365Z" fill="white"/>
<path d="M42.1455 14.4989C43.4457 14.4989 44.4997 13.4476 44.4997 12.1508C44.4997 10.854 43.4457 9.80273 42.1455 9.80273C40.8453 9.80273 39.7913 10.854 39.7913 12.1508C39.7913 13.4476 40.8453 14.4989 42.1455 14.4989Z" fill="#CF3C9B"/>
<path d="M42.1455 15.356C40.3723 15.356 38.9319 13.9194 38.9319 12.1508C38.9319 10.3822 40.3723 8.94556 42.1455 8.94556C43.9187 8.94556 45.3591 10.3822 45.3591 12.1508C45.3591 13.9194 43.9187 15.356 42.1455 15.356ZM42.1455 10.6598C41.3224 10.6598 40.6507 11.3299 40.6507 12.1508C40.6507 12.9717 41.3224 13.6478 42.1455 13.6478C42.9686 13.6478 43.6464 12.9777 43.6464 12.1508C43.6464 11.3238 42.9746 10.6598 42.1455 10.6598Z" fill="white"/>
<path d="M26.5497 5.55335C27.8499 5.55335 28.9039 4.50208 28.9039 3.20527C28.9039 1.90845 27.8499 0.857178 26.5497 0.857178C25.2496 0.857178 24.1956 1.90845 24.1956 3.20527C24.1956 4.50208 25.2496 5.55335 26.5497 5.55335Z" fill="#CF3C9B"/>
<path d="M26.5497 6.41046C24.7765 6.41046 23.3362 4.97384 23.3362 3.20523C23.3362 1.43662 24.7765 0 26.5497 0C28.323 0 29.7633 1.43662 29.7633 3.20523C29.7633 4.97384 28.323 6.41046 26.5497 6.41046ZM26.5497 1.71429C25.7267 1.71429 25.0549 2.38431 25.0549 3.20523C25.0549 4.02616 25.7267 4.69618 26.5497 4.69618C27.3728 4.69618 28.0506 4.02616 28.0506 3.20523C28.0506 2.38431 27.3789 1.71429 26.5497 1.71429Z" fill="white"/>
<path d="M32.0207 18.8331C36.1418 18.8331 39.4827 15.5009 39.4827 11.3904C39.4827 7.27994 36.1418 3.94775 32.0207 3.94775C27.8995 3.94775 24.5587 7.27994 24.5587 11.3904C24.5587 15.5009 27.8995 18.8331 32.0207 18.8331Z" fill="#CF3C9B"/>
<path d="M32.0207 19.6902C27.4333 19.6902 23.6993 15.9658 23.6993 11.3904C23.6993 6.81492 27.4333 3.09058 32.0207 3.09058C36.608 3.09058 40.342 6.81492 40.342 11.3904C40.342 15.9658 36.608 19.6902 32.0207 19.6902ZM32.0207 4.80486C28.3774 4.80486 25.418 7.76261 25.418 11.3904C25.418 15.0181 28.3835 17.9759 32.0207 17.9759C35.6579 17.9759 38.6233 15.0181 38.6233 11.3904C38.6233 7.76261 35.6579 4.80486 32.0207 4.80486Z" fill="white"/>
<path d="M23.9171 46.509V46.5754L19.4871 49.2193H13.2718L12.364 50.831H16.6367V50.8974C14.3067 52.2555 13.0781 52.9557 12.945 52.998H11.1355C10.73 53.6137 10.4395 54.1328 10.264 54.5493H19.4569L19.4871 54.5795H19.5174C18.6338 56.1489 18.1254 57.012 17.9984 57.163H5.7977L5.76744 57.1328H5.73718L11.7891 46.5151H23.9232L23.9171 46.509Z" fill="#1B1B1B"/>
<path d="M24.0261 46.4486H26.9733L27.0036 46.4788H27.0339C25.6782 48.8752 25.0004 50.1126 24.9944 50.1911L24.9641 50.354C24.9641 50.6317 25.2364 50.7705 25.7751 50.7705H28.1716C29.037 50.7705 29.6785 50.2514 30.078 49.2192L31.6333 46.4426H34.6411V46.509C33.11 49.3581 32.2688 50.8852 32.1175 51.0904C31.827 51.5613 31.246 51.8027 30.3685 51.8027V51.8329C30.9313 51.9717 31.2097 52.2071 31.2097 52.5452C31.2097 52.7082 30.8345 53.4385 30.078 54.7424C29.2186 56.2997 28.7587 57.0965 28.686 57.1327H25.7751L25.7085 57.0663C26.937 54.9898 27.5543 53.8731 27.5543 53.7102L27.5846 53.5472C27.5846 53.1186 27.282 52.9013 26.6768 52.9013H24.6676C23.6508 52.9013 22.8762 53.523 22.3376 54.7725L20.9456 57.1267H20.9154L18.1981 57.1568H17.9378L17.9076 57.1267H17.8773C19.4992 54.2474 20.4191 52.678 20.6249 52.4124C21.103 52.0019 21.6356 51.7967 22.2105 51.7967V51.7665C21.6719 51.6518 21.3995 51.4587 21.3995 51.187V51.1206C21.3995 50.9516 21.7869 50.2212 22.5615 48.9234C23.4451 47.348 23.9292 46.521 24.02 46.4365L24.0261 46.4486Z" fill="#1B1B1B"/>
<path d="M35.8091 46.4487L42.7325 46.4789H43.3498C44.1426 46.4789 44.7478 46.7928 45.1593 47.4145C45.2199 47.5413 45.2622 47.7284 45.2864 47.9638C45.2864 48.4226 44.8688 49.3461 44.0216 50.7405C43.5495 51.7063 42.9988 52.4789 42.3694 53.0644C41.3951 54.0121 40.0636 54.4829 38.3873 54.4829L34.1812 54.4528C33.2613 56.1248 32.7348 57.0302 32.5956 57.163H29.6483L29.5817 57.0966L35.7607 46.4487H35.791H35.8091ZM37.2011 49.2254L35.7123 51.8391H38.2057C39.5432 51.8391 40.3541 51.6157 40.6325 51.163C41.1288 50.4809 41.3769 50.0161 41.3769 49.7747V49.7445C41.3043 49.4004 41.0138 49.2254 40.5054 49.2254H37.2071H37.2011Z" fill="#1B1B1B"/>
<path d="M47.4046 46.4126H54.5882C55.9378 46.4126 56.7245 46.8291 56.9484 47.6681L56.9787 47.8915C56.9787 48.3623 56.5127 49.3643 55.5868 50.8915C55.0542 51.9538 54.4732 52.6359 53.8378 52.9257L52.9965 53.1188V53.149C53.4262 53.149 53.6865 53.3542 53.7712 53.7647V53.8613C53.7712 54.0726 53.2568 55.0504 52.2158 56.8009L52.0222 57.1269L50.2429 57.1571H49.0144L48.9478 57.0907L50.4366 54.4468H45.9037L44.3181 57.1269H41.3103C41.4374 56.807 42.3754 55.141 44.1244 52.1229C46.2124 48.4045 47.3017 46.5031 47.3925 46.4126H47.4046ZM47.4348 51.8029H49.9887C51.4472 51.8029 52.3006 51.471 52.5426 50.8009C52.8694 50.2396 53.0268 49.8774 53.0268 49.7023V49.479C52.8997 49.2617 52.6395 49.1591 52.2522 49.1591H48.9539C47.9371 50.8432 47.4348 51.7245 47.4348 51.8029Z" fill="#1B1B1B"/>
<path d="M59.1271 46.4788H71.2915V46.5452L66.8554 49.189H60.6764C60.4707 49.4788 60.156 50.016 59.7384 50.8007H64.011V50.8671L60.3557 52.9677H58.4493L57.6081 54.4828H66.8312L66.8615 54.513H66.8917C65.9174 56.2514 65.3969 57.1327 65.3364 57.1568H53.1055L53.0752 57.1266H53.045C57.015 50.1126 59.0424 46.5633 59.1271 46.4788Z" fill="#1B1B1B"/>
<path d="M74.6321 46.4788H83.1714V46.5089C80.4117 48.2957 78.9774 49.189 78.8685 49.189H76.4417L74.3719 49.1588C73.446 49.1588 72.5926 49.7081 71.818 50.8067H76.5445C77.5794 50.8067 78.227 51.0784 78.4872 51.6156L78.5538 51.9053V52.1287C78.5538 52.521 78.112 53.3902 77.2284 54.7423C76.4235 55.8168 75.4976 56.517 74.4445 56.8429C73.7849 57.0602 73.2341 57.1629 72.7924 57.1629H65.1912V57.0965L69.137 54.7725C69.4638 54.5552 69.6696 54.4526 69.7543 54.4526L72.9921 54.4224C73.3794 54.4224 73.8333 54.2715 74.3538 53.9697C74.8863 53.523 75.1768 53.179 75.2252 52.9375H71.1826C69.6454 52.9375 68.8041 52.678 68.6589 52.1649L68.5621 51.8087V51.6458C68.5621 51.1387 69.131 50.0945 70.2748 48.513C71.2915 47.1548 72.75 46.4788 74.6442 46.4788H74.6321Z" fill="#1B1B1B"/>
<path d="M86.3547 46.4788H94.8939V46.5089C92.1343 48.2957 90.6999 49.189 90.591 49.189H88.1642L86.0944 49.1588C85.1685 49.1588 84.3152 49.7081 83.5405 50.8067H88.2671C89.302 50.8067 89.9495 51.0784 90.2097 51.6156L90.2763 51.9053V52.1287C90.2763 52.521 89.8345 53.3902 88.9509 54.7423C88.146 55.8168 87.2201 56.517 86.1671 56.8429C85.5074 57.0602 84.9567 57.1629 84.5149 57.1629H76.9137V57.0965L80.8595 54.7725C81.1863 54.5552 81.3921 54.4526 81.4768 54.4526L84.7146 54.4224C85.1019 54.4224 85.5558 54.2715 86.0702 53.9697C86.6028 53.523 86.8933 53.179 86.9417 52.9375H82.899C81.3618 52.9375 80.5206 52.678 80.3754 52.1649L80.2786 51.8087V51.6458C80.2786 51.1387 80.8474 50.0945 81.9912 48.513C83.008 47.1548 84.4665 46.4788 86.3607 46.4788H86.3547Z" fill="#1B1B1B"/>
<path d="M3.52826 61.1951H6.57237V61.2253C4.93231 64.0925 4.06083 65.6619 3.9519 65.9395V66.1327C3.9519 66.3741 4.16976 66.513 4.59945 66.5552H8.19428C9.10812 64.8892 10.9963 61.3279 11.0931 61.2313L14.1009 61.2615V61.2917C11.2444 66.3802 8.36374 71.6921 8.22454 71.8792H6.6692L5.15017 71.9094L5.11992 71.8792L6.60868 69.2655V69.2353H1.87609C0.925942 69.2353 0.320751 68.9637 0.066571 68.4265L0 68.0039V67.8772C0 67.3762 0.423634 66.4526 1.26485 65.1005C2.65679 62.6377 3.41328 61.3339 3.52826 61.1951Z" fill="#1B1B1B"/>
<path d="M12.4124 71.9093C11.3049 71.9093 10.5848 71.6316 10.2459 71.0703C10.1611 70.9133 10.1188 70.7443 10.1188 70.5511V70.4847C10.1188 69.9777 10.5424 69.0662 11.3836 67.7443C13.4534 64.02 14.6819 61.859 15.0753 61.2554H18.0831V61.2855L14.1978 68.1306C14.0888 68.3359 14.0344 68.529 14.0344 68.7101V68.8067C14.0344 69.0843 14.2401 69.2292 14.6517 69.2292H18.1799C21.1635 63.9717 22.6946 61.3157 22.7733 61.2554H25.7206C25.7206 61.3218 24.716 63.0964 22.7128 66.5793L19.6384 71.9033H12.4246L12.4124 71.9093Z" fill="#1B1B1B"/>
<path d="M30.0477 61.2252H38.944V61.2916L34.508 63.9355H29.6846C28.6376 63.9355 27.6693 64.8168 26.7737 66.5793C26.1019 67.6055 25.769 68.2876 25.769 68.6135C25.8235 68.9999 26.0414 69.193 26.4166 69.193L26.5134 69.2232L26.9007 69.193H32.9224L32.9527 69.2232H32.9829C32.0267 70.9616 31.5183 71.8429 31.4639 71.8671H25.769L25.3454 71.8972L24.9883 71.8671H23.6267C22.7068 71.8671 22.1318 71.5652 21.914 70.9616C21.8716 70.8952 21.8413 70.7262 21.8171 70.4425C21.8171 69.8751 22.2589 68.9033 23.1425 67.5391L25.5693 63.4103C26.81 61.9496 28.2987 61.2131 30.0356 61.2131L30.0477 61.2252Z" fill="#1B1B1B"/>
<path d="M47.332 61.1951L50.1461 61.2253V61.2917L45.7464 63.9717H42.8959C39.9003 69.2655 38.3812 71.9094 38.3328 71.9094H35.325V71.8792L39.8882 63.9415H35.5489V63.8752L40.0152 61.1951H47.3259H47.332Z" fill="#1B1B1B"/>
<path d="M58.0983 61.2555H60.979L61.0093 61.2857H61.0396C59.4479 64.1831 58.5643 65.7646 58.3888 66.0302C58.1044 66.4165 57.5839 66.6097 56.8335 66.6097H56.7367V66.6399C57.2753 66.7666 57.5476 66.9537 57.5476 67.1891V67.3823C57.5476 67.5151 57.2571 68.0765 56.6761 69.0604C55.726 70.7626 55.1874 71.6861 55.0603 71.837H52.0525L53.6078 69.0966C53.7591 68.831 53.8317 68.5956 53.8317 68.3843V68.2576C53.8317 67.9437 53.6139 67.7626 53.1842 67.7083H49.7528C48.2095 70.491 47.3986 71.8853 47.3259 71.9034H44.3787C44.421 71.7525 45.6859 69.5252 48.1672 65.2213C49.5894 62.6922 50.3579 61.3823 50.4669 61.2857H53.4142V61.3521L51.0176 65.5775H54.2856C55.3205 65.5775 55.956 65.2455 56.198 64.5755C57.3721 62.4628 58.0076 61.3521 58.1044 61.2495L58.0983 61.2555Z" fill="#1B1B1B"/>
<path d="M69.5001 61.2253C70.6621 61.2253 71.4004 61.5694 71.7333 62.2575L71.7999 62.6439V62.7404C71.7999 63.1992 71.3883 64.0925 70.5713 65.4205C68.1627 69.6338 66.9099 71.7827 66.8191 71.8732H63.8416L65.3001 69.2294H60.7067C60.622 69.3139 60.1136 70.1952 59.1877 71.8732L59.1574 71.9034H56.1133V71.8732C59.0666 66.6821 60.6885 63.8873 60.9669 63.4829C61.79 62.5775 62.4497 62.0282 62.9399 61.835C63.5572 61.497 64.2047 61.3038 64.8825 61.2555L69.5122 61.2253H69.5001ZM65.1972 61.2555H69.6938C70.7347 61.2555 71.4125 61.6418 71.7333 62.4145L71.7635 62.674C71.7635 63.175 71.2491 64.2495 70.2082 65.9034C69.1854 67.7445 68.0416 69.7243 66.7768 71.843L66.6436 71.8732H63.8961L63.8295 71.8068L65.2517 69.3199V69.2233H60.622C60.5433 69.3018 60.0349 70.1891 59.103 71.8672L58.9395 71.8974H56.1557L56.1254 71.8672H56.0952C59.0424 66.6942 60.6341 63.9296 60.8822 63.5734C62.1652 62.0221 63.5995 61.2495 65.1851 61.2495L65.1972 61.2555ZM62.1229 66.6459H66.2018C66.6557 66.6459 66.8797 66.5734 66.8797 66.4225C67.5696 65.4084 67.9145 64.7988 67.9145 64.5815V64.3219C67.7935 64.0624 67.4848 63.9356 66.9765 63.9356H65.1307C63.8961 63.9356 62.8914 64.841 62.1229 66.6459ZM62.1894 66.6157H66.7828C67.5575 65.4084 67.9448 64.7324 67.9448 64.5815V64.4547C67.9448 64.1107 67.5756 63.9356 66.8433 63.9356H65.3243C64.126 63.9356 63.2122 64.5936 62.5767 65.9034C62.3165 66.3199 62.1894 66.5553 62.1894 66.6157Z" fill="#1B1B1B"/>
<path d="M78.9714 61.1409H83.6918C84.7146 61.1409 85.3561 61.5574 85.6285 62.3843L85.6587 62.6801C85.6587 63.2656 85.1019 64.3521 83.9884 65.9517C82.8385 67.1288 81.4526 67.7203 79.8247 67.7203H76.9379C76.2843 67.7203 75.5702 68.0704 74.8076 68.7646L74.3477 69.2535H81.9247L81.9913 69.3199C81.1077 71.1006 80.6356 71.994 80.5812 72H69.6938C69.7361 71.8491 70.535 70.4065 72.0903 67.6841C72.9679 66.7968 73.7788 66.2173 74.5172 65.9517C75.2252 65.6922 75.8183 65.5594 76.2904 65.5594L79.2074 65.5292L79.2376 65.5594H79.2679C80.1031 65.4628 80.914 65.1368 81.6947 64.5755C81.955 64.2737 82.0881 64.0443 82.0881 63.8873H74.3174V63.8572C77.3313 62.0463 78.8806 61.1409 78.9774 61.1409H78.9714Z" fill="#CF3C9B"/>
<path d="M87.6861 61.1409H90.7665V61.171C89.1022 64.0745 88.2187 65.668 88.1097 65.9457V66.1449C88.1097 66.3924 88.3276 66.5312 88.7633 66.5674H92.4066C93.3386 64.8773 93.8469 63.9839 93.9498 63.8873L97 63.9175V63.9477C94.1011 69.1026 92.5821 71.7767 92.4429 71.9638H90.8694L89.3262 71.994L89.2959 71.9638L90.8028 69.3139V69.2837H86.0158C85.0535 69.2837 84.4423 69.0121 84.182 68.4688L84.1155 68.0463V67.9135C84.1155 67.4065 84.5391 66.4708 85.3924 65.1006C86.8025 62.6016 87.5651 61.2857 87.6861 61.1409Z" fill="#CF3C9B"/>
</g>
<defs>
<clipPath id="clip0_6_359">
<rect width="97" height="72" fill="white"/>
</clipPath>
</defs>
</svg>
