<svg width="137" height="102" viewBox="0 0 137 102" fill="none" xmlns="http://www.w3.org/2000/svg">
<g clip-path="url(#clip0_4_488)">
<path d="M120.05 37.0613C116.272 35.6161 104.22 32.8797 104.22 32.8797C104.066 31.8963 103.622 29.9637 102.382 29.2454C100.699 28.2449 99.0746 29.4934 99.0746 29.4934L96.4676 28.2876C96.4676 28.2876 96.271 26.6201 95.117 25.6795C93.9717 24.7303 92.2451 25.8933 92.2451 25.8933L89.4158 24.0547C89.4158 24.0547 89.0825 22.0281 87.5012 21.1131C85.9113 20.2067 84.6292 21.3269 84.6292 21.3269C83.6975 20.7454 81.2871 18.5905 81.2871 18.5905C81.2871 18.5905 80.7743 16.3928 79.4579 15.6488C78.1502 14.9048 76.4919 15.7771 76.4919 15.7771C76.4919 15.7771 70.2608 7.7474 64.2262 5.29317C58.2002 2.83895 54.5846 14.3234 53.764 16.7947C53.2597 18.3339 53.8068 19.3344 54.3111 19.933C52.4563 21.4295 48.2851 24.0718 42.1052 23.7725C33.5576 23.3621 30.472 15.4436 25.7025 21.3611C22.6595 25.1408 21.6851 31.0497 21.6851 35.522L31.1814 35.7273C32.0533 35.7444 32.7456 36.4712 32.7285 37.3435C32.7114 38.2072 32.0105 38.8913 31.1472 38.8913H31.1131L21.8646 38.6946C22.0014 39.7464 22.198 40.5844 22.4287 41.106C22.4287 41.106 22.3347 41.5507 22.2322 42.2348L41.447 42.6453C42.3189 42.6624 43.0112 43.3892 42.9941 44.2615C42.977 45.1252 42.2761 45.8093 41.4128 45.8093H41.3786L21.9757 45.3903C21.9501 47.8359 22.4031 50.5638 24.4203 51.3078C28.3009 52.7529 62.303 53.5824 62.3201 53.5824C71.2438 54.1126 89.9201 54.9335 101.955 54.2836C117.264 53.4541 123.144 51.513 123.144 51.513C124.845 50.7947 124.845 48.1181 124.931 45.8435C125.033 43.5688 123.837 38.5236 120.059 37.0784L120.05 37.0613Z" fill="#CF3C9B"/>
<path d="M26.7794 31.8709C31.1225 31.8709 34.6432 28.3486 34.6432 24.0037C34.6432 19.6587 31.1225 16.1365 26.7794 16.1365C22.4364 16.1365 18.9157 19.6587 18.9157 24.0037C18.9157 28.3486 22.4364 31.8709 26.7794 31.8709Z" fill="#CF3C9B"/>
<path d="M26.7794 33.0851C21.7791 33.0851 17.702 29.0147 17.702 24.0036C17.702 18.9925 21.7706 14.9221 26.7794 14.9221C31.7883 14.9221 35.8569 18.9925 35.8569 24.0036C35.8569 29.0147 31.7883 33.0851 26.7794 33.0851ZM26.7794 17.3507C23.1126 17.3507 20.1295 20.3351 20.1295 24.0036C20.1295 27.6721 23.1126 30.6565 26.7794 30.6565C30.4463 30.6565 33.4294 27.6721 33.4294 24.0036C33.4294 20.3351 30.4463 17.3507 26.7794 17.3507Z" fill="white"/>
<path d="M58.5763 32.7003C61.7816 32.7003 64.3801 30.1007 64.3801 26.894C64.3801 23.6872 61.7816 21.0876 58.5763 21.0876C55.371 21.0876 52.7725 23.6872 52.7725 26.894C52.7725 30.1007 55.371 32.7003 58.5763 32.7003Z" fill="#CF3C9B"/>
<path d="M58.5763 33.906C54.7043 33.906 51.5588 30.7591 51.5588 26.8854C51.5588 23.0116 54.7043 19.8647 58.5763 19.8647C62.4483 19.8647 65.5938 23.0116 65.5938 26.8854C65.5938 30.7591 62.4483 33.906 58.5763 33.906ZM58.5763 22.2933C56.0462 22.2933 53.9863 24.3542 53.9863 26.8854C53.9863 29.4166 56.0462 31.4774 58.5763 31.4774C61.1064 31.4774 63.1663 29.4166 63.1663 26.8854C63.1663 24.3542 61.1064 22.2933 58.5763 22.2933Z" fill="white"/>
<path d="M59.5251 20.5404C61.3614 20.5404 62.8501 19.0511 62.8501 17.2139C62.8501 15.3768 61.3614 13.8875 59.5251 13.8875C57.6887 13.8875 56.2001 15.3768 56.2001 17.2139C56.2001 19.0511 57.6887 20.5404 59.5251 20.5404Z" fill="#CF3C9B"/>
<path d="M59.5251 21.7546C57.0207 21.7546 54.9863 19.7194 54.9863 17.2138C54.9863 14.7083 57.0207 12.6731 59.5251 12.6731C62.0295 12.6731 64.0638 14.7083 64.0638 17.2138C64.0638 19.7194 62.0295 21.7546 59.5251 21.7546ZM59.5251 15.1017C58.3626 15.1017 57.4138 16.0509 57.4138 17.2138C57.4138 18.3768 58.3626 19.3346 59.5251 19.3346C60.6875 19.3346 61.6449 18.3854 61.6449 17.2138C61.6449 16.0423 60.6961 15.1017 59.5251 15.1017Z" fill="white"/>
<path d="M37.4981 7.86727C39.3344 7.86727 40.8231 6.37797 40.8231 4.54081C40.8231 2.70366 39.3344 1.21436 37.4981 1.21436C35.6617 1.21436 34.1731 2.70366 34.1731 4.54081C34.1731 6.37797 35.6617 7.86727 37.4981 7.86727Z" fill="#CF3C9B"/>
<path d="M37.4981 9.08149C34.9936 9.08149 32.9593 7.04628 32.9593 4.54074C32.9593 2.03521 34.9936 0 37.4981 0C40.0025 0 42.0368 2.03521 42.0368 4.54074C42.0368 7.04628 40.0025 9.08149 37.4981 9.08149ZM37.4981 2.42857C36.3356 2.42857 35.3868 3.37777 35.3868 4.54074C35.3868 5.70372 36.3356 6.65292 37.4981 6.65292C38.6605 6.65292 39.6179 5.70372 39.6179 4.54074C39.6179 3.37777 38.6691 2.42857 37.4981 2.42857Z" fill="white"/>
<path d="M45.225 26.6801C51.0456 26.6801 55.7642 21.9595 55.7642 16.1363C55.7642 10.3131 51.0456 5.59253 45.225 5.59253C39.4045 5.59253 34.6859 10.3131 34.6859 16.1363C34.6859 21.9595 39.4045 26.6801 45.225 26.6801Z" fill="#CF3C9B"/>
<path d="M45.225 27.8943C38.746 27.8943 33.4722 22.6181 33.4722 16.1362C33.4722 9.65433 38.746 4.37817 45.225 4.37817C51.7041 4.37817 56.9779 9.65433 56.9779 16.1362C56.9779 22.6181 51.7041 27.8943 45.225 27.8943ZM45.225 6.80675C40.0794 6.80675 35.8997 10.9969 35.8997 16.1362C35.8997 21.2756 40.088 25.4657 45.225 25.4657C50.3621 25.4657 54.5504 21.2756 54.5504 16.1362C54.5504 10.9969 50.3621 6.80675 45.225 6.80675Z" fill="white"/>
<path d="M33.7799 65.8879V65.982L27.5231 69.7275H18.7448L17.4626 72.0107H23.4972V72.1047C20.2064 74.0288 18.4712 75.0207 18.2832 75.0806H15.7275C15.1548 75.9528 14.7445 76.6882 14.4966 77.2783H27.4803L27.5231 77.321H27.5658C26.3179 79.5444 25.5999 80.7672 25.4204 80.981H8.18855L8.14581 80.9382H8.10307L16.6506 65.8965H33.7884L33.7799 65.8879Z" fill="#1B1B1B"/>
<path d="M33.9337 65.8023H38.0964L38.1391 65.845H38.1819C36.2672 69.2399 35.3099 70.9929 35.3013 71.1041L35.2586 71.335C35.2586 71.7283 35.6432 71.925 36.404 71.925H39.7888C41.0111 71.925 41.9171 71.1896 42.4813 69.7273L44.678 65.7937H48.9261V65.8878C46.7636 69.924 45.5755 72.0875 45.3618 72.3782C44.9515 73.0452 44.131 73.3873 42.8916 73.3873V73.43C43.6865 73.6267 44.0797 73.9602 44.0797 74.4391C44.0797 74.67 43.5497 75.7047 42.4813 77.5518C41.2675 79.758 40.6179 80.8868 40.5153 80.9381H36.404L36.31 80.844C38.0451 77.9024 38.917 76.3204 38.917 76.0895L38.9597 75.8586C38.9597 75.2515 38.5323 74.9436 37.6776 74.9436H34.8398C33.4038 74.9436 32.3097 75.8244 31.549 77.5945L29.583 80.9295H29.5403L25.7025 80.9723H25.3349L25.2922 80.9295H25.2494C27.5402 76.8505 28.8394 74.6272 29.13 74.251C29.8053 73.6695 30.5575 73.3787 31.3695 73.3787V73.336C30.6087 73.1735 30.2241 72.8998 30.2241 72.515V72.421C30.2241 72.1815 30.7711 71.1468 31.8652 69.3083C33.1132 67.0764 33.797 65.9049 33.9252 65.7852L33.9337 65.8023Z" fill="#1B1B1B"/>
<path d="M50.5758 65.8022L60.3542 65.845H61.226C62.3458 65.845 63.2005 66.2897 63.7818 67.1705C63.8672 67.35 63.9271 67.6151 63.9613 67.9486C63.9613 68.5985 63.3715 69.9069 62.1748 71.8822C61.5081 73.2504 60.7303 74.345 59.8413 75.1745C58.4652 76.517 56.5847 77.184 54.2171 77.184L48.2765 77.1413C46.9773 79.51 46.2337 80.7927 46.0371 80.9808H41.8744L41.7804 80.8868L50.5074 65.8022H50.5502H50.5758ZM52.5417 69.7359L50.439 73.4386H53.9606C55.8496 73.4386 56.995 73.1222 57.3882 72.4808C58.0891 71.5145 58.4395 70.8561 58.4395 70.514V70.4713C58.337 69.9838 57.9267 69.7359 57.2087 69.7359H52.5503H52.5417Z" fill="#1B1B1B"/>
<path d="M66.9529 65.751H77.0988C79.0049 65.751 80.1161 66.341 80.4324 67.5297L80.4751 67.846C80.4751 68.513 79.8169 69.9326 78.5092 72.096C77.757 73.6011 76.9364 74.5674 76.0389 74.9778L74.8508 75.2515V75.2942C75.4577 75.2942 75.8252 75.585 75.9449 76.1665V76.3033C75.9449 76.6026 75.2184 77.9879 73.7482 80.4678L73.4747 80.9295L70.9617 80.9723H69.2265L69.1325 80.8782L71.2352 77.1328H64.8331L62.5937 80.9295H58.3455C58.525 80.4763 59.8499 78.1162 62.3201 73.8405C65.269 68.5729 66.8076 65.8792 66.9358 65.751H66.9529ZM66.9956 73.3873H70.6027C72.6627 73.3873 73.8679 72.917 74.2098 71.9678C74.6713 71.1725 74.8936 70.6594 74.8936 70.4114V70.095C74.7141 69.7872 74.3465 69.6418 73.7995 69.6418H69.1411C67.7051 72.0276 66.9956 73.2761 66.9956 73.3873Z" fill="#1B1B1B"/>
<path d="M83.5095 65.845H100.69V65.939L94.4247 69.6845H85.6977C85.407 70.095 84.9626 70.856 84.3728 71.9677H90.4073V72.0618L85.2446 75.0376H82.5522L81.3641 77.184H94.3905L94.4332 77.2268H94.476C93.0998 79.6895 92.3647 80.938 92.2793 80.9722H75.0047L74.9619 80.9295H74.9192C80.5264 70.9929 83.3898 65.9647 83.5095 65.845Z" fill="#1B1B1B"/>
<path d="M105.408 65.845H117.469V65.8877C113.571 68.4189 111.545 69.6845 111.392 69.6845H107.964L105.041 69.6418C103.733 69.6418 102.528 70.4199 101.434 71.9763H108.109C109.571 71.9763 110.486 72.3611 110.853 73.1221L110.947 73.5326V73.849C110.947 74.4048 110.323 75.6362 109.075 77.5517C107.938 79.0738 106.631 80.0658 105.143 80.5276C104.212 80.8354 103.434 80.9808 102.81 80.9808H92.0741V80.8867L97.6471 77.5945C98.1087 77.2866 98.3993 77.1412 98.519 77.1412L103.092 77.0985C103.639 77.0985 104.28 76.8847 105.015 76.4571C105.767 75.8244 106.178 75.3369 106.246 74.9949H100.536C98.3651 74.9949 97.177 74.6272 96.9719 73.9003L96.8351 73.3958V73.1649C96.8351 72.4466 97.6386 70.9672 99.2541 68.7268C100.69 66.8027 102.75 65.845 105.425 65.845H105.408Z" fill="#1B1B1B"/>
<path d="M121.965 65.845H134.025V65.8877C130.128 68.4189 128.102 69.6845 127.948 69.6845H124.521L121.597 69.6418C120.29 69.6418 119.084 70.4199 117.99 71.9763H124.666C126.128 71.9763 127.042 72.3611 127.41 73.1221L127.504 73.5326V73.849C127.504 74.4048 126.88 75.6362 125.632 77.5517C124.495 79.0738 123.187 80.0658 121.7 80.5276C120.768 80.8354 119.99 80.9808 119.366 80.9808H108.631V80.8867L114.204 77.5945C114.665 77.2866 114.956 77.1412 115.076 77.1412L119.648 77.0985C120.196 77.0985 120.837 76.8847 121.563 76.4571C122.315 75.8244 122.726 75.3369 122.794 74.9949H117.084C114.913 74.9949 113.725 74.6272 113.52 73.9003L113.383 73.3958V73.1649C113.383 72.4466 114.187 70.9672 115.802 68.7268C117.238 66.8027 119.298 65.845 121.973 65.845H121.965Z" fill="#1B1B1B"/>
<path d="M4.98322 86.6931H9.28263V86.7359C6.96625 90.7977 5.7354 93.0211 5.58154 93.4144V93.6881C5.58154 94.0301 5.88926 94.2268 6.49613 94.2867H11.5734C12.864 91.9265 15.5309 86.8812 15.6676 86.7444L19.9158 86.7872V86.8299C15.8813 94.0387 11.8127 101.564 11.6161 101.829H9.41939L7.27396 101.872L7.23122 101.829L9.33392 98.1262V98.0835H2.64974C1.30777 98.0835 0.45302 97.6987 0.094023 96.9376L0 96.339V96.1594C0 95.4497 0.598328 94.1413 1.78644 92.2258C3.75237 88.7369 4.82081 86.8898 4.98322 86.6931Z" fill="#1B1B1B"/>
<path d="M17.531 101.872C15.9668 101.872 14.9497 101.478 14.471 100.683C14.3513 100.461 14.2915 100.221 14.2915 99.9476V99.8535C14.2915 99.1352 14.8898 97.844 16.0779 95.9712C19.0012 90.6951 20.7363 87.6337 21.2919 86.7786H25.5401V86.8213L20.0525 96.5185C19.8987 96.8092 19.8217 97.0829 19.8217 97.3394V97.4762C19.8217 97.8696 20.1124 98.0748 20.6936 98.0748H25.6768C29.8908 90.6267 32.0533 86.8641 32.1644 86.7786H36.3271C36.3271 86.8726 34.9082 89.3867 32.0789 94.3208L27.7368 101.863H17.5481L17.531 101.872Z" fill="#1B1B1B"/>
<path d="M42.4385 86.7358H55.0034V86.8299L48.7381 90.5754H41.9257C40.447 90.5754 39.0794 91.8239 37.8143 94.3209C36.8656 95.7746 36.3954 96.7409 36.3954 97.2026C36.4724 97.7499 36.7801 98.0236 37.31 98.0236L37.4468 98.0663L37.9938 98.0236H46.4986L46.5414 98.0663H46.5841C45.2336 100.529 44.5156 101.778 44.4387 101.812H36.3954L35.7971 101.855L35.2928 101.812H33.3696C32.0704 101.812 31.2584 101.384 30.9506 100.529C30.8908 100.435 30.8481 100.196 30.8139 99.7937C30.8139 98.9899 31.4379 97.6131 32.6858 95.6805L36.1134 89.8314C37.8656 87.762 39.9683 86.7188 42.4215 86.7188L42.4385 86.7358Z" fill="#1B1B1B"/>
<path d="M66.8503 86.6931L70.8249 86.7359V86.8299L64.6109 90.6267H60.585C56.3539 98.1262 54.2085 101.872 54.1401 101.872H49.892V101.829L56.3369 90.584H50.2083V90.4899L56.5164 86.6931H66.8418H66.8503Z" fill="#1B1B1B"/>
<path d="M82.0564 86.7786H86.125L86.1678 86.8213H86.2105C83.9625 90.926 82.7146 93.1664 82.4667 93.5427C82.065 94.0899 81.3299 94.3636 80.27 94.3636H80.1332V94.4063C80.8939 94.5859 81.2786 94.851 81.2786 95.1845V95.4581C81.2786 95.6463 80.8683 96.4416 80.0477 97.8354C78.7058 100.247 77.945 101.555 77.7655 101.769H73.5174L75.7141 97.8867C75.9278 97.5105 76.0304 97.177 76.0304 96.8777V96.6981C76.0304 96.2534 75.7227 95.9969 75.1158 95.9199H70.2693C68.0897 99.8621 66.9443 101.837 66.8418 101.863H62.6791C62.739 101.649 64.5254 98.4939 68.0299 92.3968C70.0386 88.8138 71.1241 86.9581 71.278 86.8213H75.4406V86.9154L72.0558 92.9013H76.6714C78.1331 92.9013 79.0306 92.431 79.3725 91.4818C81.0307 88.4888 81.9282 86.9154 82.065 86.77L82.0564 86.7786Z" fill="#1B1B1B"/>
<path d="M98.16 86.7358C99.8011 86.7358 100.844 87.2233 101.314 88.1981L101.408 88.7454V88.8822C101.408 89.5321 100.827 90.7977 99.6729 92.679C96.271 98.6478 94.5016 101.692 94.3734 101.82H90.168L92.228 98.0749H85.7404C85.6207 98.1946 84.9027 99.4431 83.595 101.82L83.5522 101.863H79.2528V101.82C83.424 94.4662 85.7147 90.507 86.1079 89.934C87.2704 88.6513 88.2021 87.8732 88.8944 87.5995C89.7663 87.1207 90.6809 86.847 91.6382 86.7786L98.1771 86.7358H98.16ZM92.0827 86.7786H98.4335C99.9037 86.7786 100.861 87.3259 101.314 88.4204L101.357 88.7882C101.357 89.4979 100.63 91.02 99.16 93.3631C97.7155 95.9713 96.1 98.7761 94.3136 101.778L94.1255 101.82H90.2449L90.1509 101.726L92.1596 98.2031V98.0663H85.6207C85.5096 98.1775 84.7916 99.4345 83.4753 101.812L83.2445 101.855H79.3126L79.2699 101.812H79.2272C83.3898 94.4833 85.6378 90.5668 85.9883 90.0623C87.8003 87.8646 89.8261 86.77 92.0656 86.77L92.0827 86.7786ZM87.7405 94.4149H93.5016C94.1426 94.4149 94.4589 94.3123 94.4589 94.0985C95.4333 92.6619 95.9205 91.7982 95.9205 91.4904V91.1227C95.7496 90.755 95.3136 90.5754 94.5956 90.5754H91.9886C90.2449 90.5754 88.8261 91.8581 87.7405 94.4149ZM87.8345 94.3722H94.3221C95.4162 92.6619 95.9632 91.7041 95.9632 91.4904V91.3108C95.9632 90.8234 95.4418 90.5754 94.4076 90.5754H92.2622C90.5698 90.5754 89.2791 91.5075 88.3816 93.3631C88.014 93.9531 87.8345 94.2866 87.8345 94.3722Z" fill="#1B1B1B"/>
<path d="M111.537 86.6162H118.204C119.648 86.6162 120.555 87.2062 120.939 88.3778L120.982 88.7968C120.982 89.6263 120.196 91.1655 118.623 93.4316C116.999 95.0991 115.041 95.9371 112.742 95.9371H108.665C107.742 95.9371 106.733 96.4331 105.656 97.4165L105.007 98.1092H115.708L115.802 98.2032C114.554 100.726 113.887 101.991 113.811 102H98.4335C98.4933 101.786 99.6216 99.7425 101.818 95.8858C103.058 94.6288 104.203 93.8079 105.246 93.4316C106.246 93.0639 107.084 92.8758 107.75 92.8758L111.87 92.833L111.913 92.8758H111.956C113.135 92.7389 114.281 92.2772 115.383 91.4819C115.751 91.0543 115.939 90.7294 115.939 90.5071H104.964V90.4643C109.22 87.8989 111.409 86.6162 111.545 86.6162H111.537Z" fill="#CF3C9B"/>
<path d="M123.845 86.6162H128.196V86.659C125.845 90.7721 124.598 93.0297 124.444 93.4231V93.7052C124.444 94.0558 124.751 94.2525 125.367 94.3038H130.512C131.829 91.9095 132.547 90.6439 132.692 90.5071L137 90.5498V90.5926C132.906 97.8954 130.76 101.684 130.564 101.949H128.341L126.162 101.991L126.119 101.949L128.247 98.1947V98.1519H121.486C120.127 98.1519 119.264 97.7671 118.896 96.9975L118.802 96.3989V96.2108C118.802 95.4925 119.401 94.167 120.606 92.2259C122.597 88.6856 123.674 86.8214 123.845 86.6162Z" fill="#CF3C9B"/>
</g>
<defs>
<clipPath id="clip0_4_488">
<rect width="137" height="102" fill="white"/>
</clipPath>
</defs>
</svg>
